<svg aria-hidden="true" style="position:absolute;width:0;height:0" xmlns="http://www.w3.org/2000/svg" overflow="hidden">
    <defs>
        <symbol id="icon-email" viewBox="0 0 32 32">
            <path d="M30.837 9.327L19.065.977a5.297 5.297 0 00-6.129 0L1.164 9.327a2.76 2.76 0 00-1.163 2.251v18.07A2.352 2.352 0 002.354 32h27.293c1.3 0 2.353-1.053 2.353-2.352v-18.07c0-.894-.434-1.733-1.163-2.251zM18.576 21.049l10.718-6.988a.3.3 0 01.465.252v14.159a.301.301 0 01-.466.252l-10.718-6.988a.41.41 0 010-.686zm10.246-9.354L17.17 19.292a2.143 2.143 0 01-2.339 0L3.179 11.695a.628.628 0 01-.02-1.038l10.142-7.195a4.666 4.666 0 015.399 0l10.142 7.195a.628.628 0 01-.02 1.038zm-15.398 10.04L2.706 28.723a.3.3 0 01-.465-.252V14.312a.3.3 0 01.465-.252l10.718 6.988a.41.41 0 010 .686zm-7.455 7.534l9.807-6.394a.41.41 0 01.448 0l9.807 6.395a.268.268 0 01-.147.492H6.114c-.267 0-.37-.347-.146-.492z"/>
        </symbol>
        <symbol id="icon-shop" viewBox="0 0 32 32">
            <path d="M28.312 10.535h-6.609C20.974 4.83 19.026 0 16 0s-4.974 4.83-5.704 10.535H3.688c-2.566 0-4.347 2.556-3.455 4.961l4.289 14.166A3.585 3.585 0 007.884 32h16.233c1.5 0 2.841-.933 3.362-2.338l4.289-14.166c.891-2.405-.889-4.961-3.455-4.961zM16 1.327c1.736 0 3.628 3.599 4.372 9.208h-8.745c.745-5.61 2.636-9.208 4.373-9.208zm13.332 14.288l-3.76 12.739a2.156 2.156 0 01-2.021 1.406H8.45a2.155 2.155 0 01-2.021-1.406l-3.76-12.739a2.107 2.107 0 011.977-2.838h5.429a42.265 42.265 0 00-.098 2.309 1.14 1.14 0 101.802.927c0-.38-.188-.715-.475-.922.011-.796.044-1.569.097-2.314h9.196c.052.735.085 1.496.096 2.28a1.135 1.135 0 00-.474.922 1.14 1.14 0 101.801-.927 42.07 42.07 0 00-.097-2.275h5.429a2.108 2.108 0 011.978 2.839z"/>
        </symbol>
        <symbol id="icon-user" viewBox="0 0 32 32">
        <path d="M15.944 0C1.651 0-5.548 18.134 5.092 27.828c5.336 4.862 13.465 5.554 19.548 1.659 5.989-3.835 8.766-11.411 6.664-18.189C29.247 4.667 22.907.001 15.945.001zm0 2.223c10.826 0 17.556 12.436 11.511 21.455a13.004 13.004 0 00-7.42-6.352c4.947-3.767 2.278-12.082-4.092-12.082-6.371 0-9.038 8.314-4.092 12.082a12.987 12.987 0 00-7.42 6.352c-6.046-9.018.687-21.455 11.512-21.455zm0 14.26c-5.821 0-5.829-9.015 0-9.015 5.825 0 5.83 9.015 0 9.015zm-9.939 9.135c2.558-6.427 10.839-8.749 16.385-4.572a10.694 10.694 0 013.019 3.545c.594 1.124.435 1.152-.546 1.977a13.923 13.923 0 01-3.519 2.155c-5.208 2.204-11.403.945-15.339-3.105z"/>
        </symbol>
    </defs>
</svg>